<?xml version="1.0" encoding="utf-8"?>
<!-- Generator: Adobe Illustrator 15.0.2, SVG Export Plug-In . SVG Version: 6.00 Build 0)  -->
<!DOCTYPE svg PUBLIC "-//W3C//DTD SVG 1.1//EN" "http://www.w3.org/Graphics/SVG/1.1/DTD/svg11.dtd">
<svg version="1.1" id="Calque_1" xmlns="http://www.w3.org/2000/svg" xmlns:xlink="http://www.w3.org/1999/xlink" x="0px" y="0px"
	 width="562.57px" height="124.893px" viewBox="0 0 562.57 124.893" enable-background="new 0 0 562.57 124.893"
	 xml:space="preserve">
<rect y="113.639" fill="#E30613" width="37.134" height="11.253"/>
<rect y="99.014" fill="#E30613" width="37.134" height="11.253"/>
<rect y="84.389" fill="#E30613" width="37.134" height="11.253"/>
<rect y="69.764" fill="#F3997B" width="37.134" height="11.249"/>
<rect y="55.135" fill="#F3997B" width="37.134" height="11.248"/>
<rect x="41.63" y="113.639" fill="#FFED00" width="37.135" height="11.253"/>
<rect x="41.63" y="99.014" fill="#FFED00" width="37.135" height="11.253"/>
<rect x="41.63" y="84.389" fill="#FFED00" width="37.135" height="11.253"/>
<rect x="83.261" y="113.639" fill="#E6007E" width="37.134" height="11.253"/>
<rect x="83.261" y="99.014" fill="#E6007E" width="37.134" height="11.253"/>
<rect x="83.261" y="84.389" fill="#E6007E" width="37.134" height="11.253"/>
<rect x="83.261" y="69.764" fill="#F29FC5" width="37.134" height="11.249"/>
<rect x="83.261" y="55.135" fill="#F29FC5" width="37.134" height="11.248"/>
<rect x="83.261" y="40.507" fill="#F29FC5" width="37.134" height="11.252"/>
<rect x="83.261" y="25.882" fill="#F29FC5" width="37.134" height="11.252"/>
<rect x="124.892" y="113.639" fill="#C8D400" width="37.134" height="11.253"/>
<rect x="124.892" y="99.014" fill="#C8D400" width="37.134" height="11.253"/>
<rect x="124.892" y="84.389" fill="#C8D400" width="37.134" height="11.253"/>
<rect x="124.892" y="69.764" fill="#E5E99B" width="37.134" height="11.249"/>
<rect x="124.892" y="55.135" fill="#E5E99B" width="37.134" height="11.248"/>
<rect x="166.521" y="113.639" fill="#41C0F0" width="37.135" height="11.253"/>
<rect x="166.521" y="99.014" fill="#41C0F0" width="37.135" height="11.253"/>
<rect x="166.521" y="84.385" fill="#41C0F0" width="37.135" height="11.254"/>
<rect x="166.521" y="69.76" fill="#BCE4FA" width="37.135" height="11.254"/>
<rect x="166.521" y="55.132" fill="#BCE4FA" width="37.135" height="11.252"/>
<rect x="166.521" y="40.507" fill="#BCE4FA" width="37.135" height="11.248"/>
<rect x="166.521" y="25.878" fill="#BCE4FA" width="37.135" height="11.248"/>
<rect x="166.521" y="11.249" fill="#BCE4FA" width="37.135" height="11.253"/>
<g>
	<path fill="#010202" d="M218.276,0h27.839c28.025,0,30.669,9.808,30.669,46.135V83.26c0,32.004-6.436,41.632-33.754,41.632h-24.754
		V0z M235.15,110.36h8.721c12.804,0,14.9-6.749,14.9-28.199V39.267c0-18.514-1.584-24.738-16.28-24.738h-7.341V110.36z"/>
	<path fill="#010202" d="M283.529,0h47.26v14.847h-30.383v39.16h28.129v14.629h-28.129v41.422h30.383v14.835h-47.26V0z"/>
	<path fill="#010202" d="M337.541,0h47.254v14.847h-30.377v39.16h28.129v14.629h-28.129v41.422h30.377v14.835h-47.254V0z"/>
	<path fill="#010202" d="M453.423,0h47.26v14.847H470.3v39.16h28.135v14.629H470.3v41.422h30.383v14.835h-47.26V0z"/>
	<path fill="#010202" d="M391.544,110.271l38.881-95.639h-38.881V0.008h55.127v14.625l-38.211,95.639h38.211V124.9l-55.127-0.008
		V110.271z"/>
	<path fill="#010202" d="M507.435,0.008h27c25.259,0,27.025,6.436,27.025,33.768c0,16.771-1.58,24.974-15.768,29.296l0,0
		c11.76,1.21,15.791,7.35,15.791,19.104v27.157c0,4.504,0.03,10.368,1.086,15.56h-16.877c-1.736-3.116-1.117-6.183-1.117-11.202
		V85.498c0-11.765-2.232-14.609-13.652-14.609h-6.612V124.9l-16.875-0.008L507.435,0.008L507.435,0.008z M524.31,55.135h5.234
		c13.666,0,15.752-1.687,15.752-20.364c0-18.514-1.658-20.146-12.373-20.146h-8.612L524.31,55.135L524.31,55.135z"/>
</g>
</svg>
