<?xml version="1.0" encoding="utf-8"?>
<!-- Generator: Adobe Illustrator 15.0.2, SVG Export Plug-In . SVG Version: 6.00 Build 0)  -->
<!DOCTYPE svg PUBLIC "-//W3C//DTD SVG 1.1//EN" "http://www.w3.org/Graphics/SVG/1.1/DTD/svg11.dtd">
<svg version="1.1" id="Layer_1" xmlns="http://www.w3.org/2000/svg" xmlns:xlink="http://www.w3.org/1999/xlink" x="0px" y="0px"
	 width="84.48px" height="96px" viewBox="0 0 84.48 96" enable-background="new 0 0 84.48 96" xml:space="preserve">
<path d="M59.898,30.72l-3.278,5.76h2.899v15.36H47.875l-2.187,3.84H59.52v15.36H44.16V58.365l-3.84,6.745v5.93h-3.376l-2.186,3.84
	h5.562v15.36H24.96V74.88h7.307l-3.139-3.84H24.96v-5.1l-3.84-4.698v9.798H5.76V55.68h10.813l-3.139-3.84H5.76V36.48h12.021
	l3.03-2.477l4.149,5.076V36.48h12.097l3.279-5.76H0v57.51C0,92.521,3.439,96,7.68,96h69.121c4.24,0,7.68-3.479,7.68-7.77V30.72
	H59.898z M21.12,90.24H5.76V74.88h15.36V90.24z M59.52,90.24H44.16V74.88H59.52V90.24z M78.721,90.24H63.36V74.88h15.36V90.24z
	 M78.721,71.04H63.36V55.68h15.36V71.04z M78.721,51.84H63.36V36.48h15.36V51.84z"/>
<path d="M76.801,11.52H64.32V2.88c0-1.591-1.291-2.88-2.88-2.88c-1.591,0-2.88,1.289-2.88,2.88v8.64H25.92V2.88
	C25.92,1.289,24.63,0,23.04,0c-1.59,0-2.88,1.289-2.88,2.88v8.64H7.68C3.439,11.52,0,14.998,0,19.289v6.631v0.96h42.522
	l7.239-12.716l6.13,3.49c0.409-1.463,1.382-2.69,2.669-3.436v4.955l4.363,2.484c0.833-0.504,1.396-1.411,1.396-2.457v-4.983
	c1.721,0.996,2.88,2.853,2.88,4.983c0,2.502-1.6,4.626-3.829,5.421l-1.286,2.259H84.48v-0.96v-6.631
	C84.48,14.998,81.041,11.52,76.801,11.52z M23.04,24.96c-3.18,0-5.76-2.58-5.76-5.76c0-2.13,1.161-3.986,2.88-4.982V19.2
	c0,1.59,1.29,2.88,2.88,2.88c1.59,0,2.88-1.29,2.88-2.88v-4.983c1.72,0.996,2.88,2.853,2.88,4.983
	C28.8,22.38,26.222,24.96,23.04,24.96z"/>
<polygon points="33.144,69.631 13.277,45.327 20.246,39.631 31.812,53.781 51.259,19.619 59.081,24.072 "/>
<polygon points="33.144,69.631 13.277,45.327 20.246,39.631 31.812,53.781 51.259,19.619 59.081,24.072 "/>
</svg>
