<?xml version="1.0" encoding="utf-8"?>
<!-- Generator: Adobe Illustrator 15.0.2, SVG Export Plug-In . SVG Version: 6.00 Build 0)  -->
<!DOCTYPE svg PUBLIC "-//W3C//DTD SVG 1.1//EN" "http://www.w3.org/Graphics/SVG/1.1/DTD/svg11.dtd">
<svg version="1.1" id="Layer_1" xmlns="http://www.w3.org/2000/svg" xmlns:xlink="http://www.w3.org/1999/xlink" x="0px" y="0px"
	 width="71.999px" height="64.521px" viewBox="0 0 71.999 64.521" enable-background="new 0 0 71.999 64.521" xml:space="preserve">
<path d="M71.771,47.242c0.233,0.326,0.292,0.746,0.158,1.123l-3.914,10.858c-1.144,3.174-4.202,5.299-7.631,5.299H11.616
	c-3.429,0-6.487-2.125-7.634-5.299l-3.911-10.86c-0.135-0.375-0.075-0.795,0.158-1.123c0.234-0.326,0.618-0.518,1.021-0.518h3.466
	h62.834h3.195C71.154,46.722,71.534,46.914,71.771,47.242z"/>
<path d="M65.244,30.78c1.619,3.226,2.52,6.791,2.517,10.526c0,1.048-0.07,2.088-0.207,3.107h-0.003l-2.528,0.02H4.717
	c-0.14-1.026-0.213-2.072-0.213-3.127c0-3.863,0.962-7.541,2.685-10.855c1.605-3.09,3.867-5.859,6.627-8.194
	c0.169,0.625,0.524,2.321,0.589,2.796c0.085,0.568,0.129,1.178,0.189,1.735c0.283,2.677,1.474,5.286,3.562,7.335
	c1.211,1.193,2.617,2.085,4.113,2.679c1.499,0.591,3.09,0.885,4.677,0.885c3.167,0.002,6.337-1.208,8.742-3.583
	c1.193-1.177,2.09-2.549,2.689-4.013c0.598-1.463,0.896-3.021,0.896-4.578c0.002-2.999-1.074-6.051-3.352-8.339
	c-0.018-0.019-0.036-0.039-0.057-0.057c-0.078-0.078-0.156-0.156-0.236-0.231c-0.913-0.799-1.93-1.631-3.061-2.291
	c1.173-0.108,2.361-0.168,3.566-0.168c6.508,0,12.57,1.67,17.612,4.549C58.789,21.852,62.819,25.937,65.244,30.78z"/>
<path d="M36.767,25.515c0,1.25-0.239,2.493-0.716,3.66c-0.478,1.167-1.188,2.256-2.14,3.192c-1.927,1.902-4.443,2.858-6.964,2.861
	c-1.274,0-2.545-0.236-3.74-0.708c-1.193-0.474-2.309-1.183-3.278-2.137c-1.66-1.631-2.599-3.684-2.835-5.805
	c0-0.002,0-0.008,0-0.01c-0.189-2.677-0.86-5.424-1.812-7.852c-0.478-1.211-1.025-2.347-1.624-3.351
	c-0.602-1.004-1.253-1.877-1.966-2.581c-2.259-2.217-5.32-3.465-8.513-3.465H2.577c-0.446,0-0.837-0.174-1.131-0.462
	C1.155,8.568,0.979,8.184,0.979,7.749c0-0.438,0.176-0.822,0.467-1.113C1.738,6.351,2.13,6.179,2.577,6.179
	c1.278,0,2.451-0.516,3.287-1.338c0.841-0.825,1.364-1.974,1.361-3.232V1.57c0.002-0.438,0.179-0.822,0.47-1.11
	C7.987,0.171,8.379,0,8.822,0C9.269,0,9.66,0.171,9.954,0.459c0.291,0.288,0.467,0.672,0.47,1.11v3.572
	c0,1.234,0.493,2.42,1.37,3.299c0.013,0.013,0.023,0.026,0.036,0.039c0.532,0.56,1.178,1.012,1.894,1.406
	c1.284,0.708,2.814,1.248,4.5,1.785c2.527,0.804,5.403,1.585,8.205,2.69c2.802,1.102,5.506,2.394,7.673,4.503
	C35.944,20.685,36.767,23.11,36.767,25.515z"/>
</svg>
