<?xml version="1.0" encoding="utf-8"?>
<!-- Generator: Adobe Illustrator 15.0.2, SVG Export Plug-In . SVG Version: 6.00 Build 0)  -->
<!DOCTYPE svg PUBLIC "-//W3C//DTD SVG 1.1//EN" "http://www.w3.org/Graphics/SVG/1.1/DTD/svg11.dtd">
<svg version="1.1" id="Layer_1" xmlns="http://www.w3.org/2000/svg" xmlns:xlink="http://www.w3.org/1999/xlink" x="0px" y="0px"
	 width="80px" height="80px" viewBox="0 0 80 80" enable-background="new 0 0 80 80" xml:space="preserve">
<path d="M79.375,47.062C79.812,44.75,80,42.438,80,40s-0.25-4.75-0.625-7.062H61.188V28.25H78.25C73.188,11.875,58,0,40,0
	S6.812,11.875,1.75,28.25h17.062v4.688H0.625C0.25,35.25,0,37.562,0,40s0.25,4.75,0.625,7.062h18.188v4.688H1.75
	C6.812,68.125,22,80,40,80s33.188-11.875,38.25-28.25H61.188v-4.688H79.375z M8.938,23.5C14.875,12.438,26.562,4.875,40,4.875
	s25.125,7.562,31.062,18.688h-24v-8.438c2.812,0.812,5.438,2.062,7.75,3.688h7.375C57.125,13.5,50.125,10,42.375,9.438V28.25H56.5
	v4.688h-33V28.25h14.125V9.438C29.875,10,22.875,13.5,17.812,18.812h7.375c2.312-1.625,4.938-2.875,7.75-3.688V23.5H8.938z
	 M71.062,56.5C65.188,67.625,53.5,75.188,40,75.188c-13.438,0-25.125-7.562-31.062-18.688h24v8.375
	c-2.812-0.812-5.438-2.062-7.75-3.688h-7.375C22.875,66.5,29.875,70,37.688,70.625V51.75H23.5v-4.688h32.938v4.688H42.375v18.812
	C50.188,70,57.125,66.5,62.25,61.125h-7.438C52.5,62.75,49.875,64,47.062,64.812V56.5H71.062z M4.938,42.375
	C4.875,41.625,4.875,40.812,4.875,40s0.062-1.562,0.062-2.375h70.125c0.062,0.75,0.062,1.562,0.062,2.375s-0.062,1.562-0.062,2.375
	H4.938z"/>
</svg>
