<?xml version="1.0" encoding="utf-8"?>
<!-- Generator: Adobe Illustrator 15.0.2, SVG Export Plug-In . SVG Version: 6.00 Build 0)  -->
<!DOCTYPE svg PUBLIC "-//W3C//DTD SVG 1.1//EN" "http://www.w3.org/Graphics/SVG/1.1/DTD/svg11.dtd">
<svg version="1.1" id="Layer_1" xmlns:sketch="http://www.bohemiancoding.com/sketch/ns"
	 xmlns="http://www.w3.org/2000/svg" xmlns:xlink="http://www.w3.org/1999/xlink" x="0px" y="0px" width="59.26px" height="80px"
	 viewBox="0 0 59.26 80" enable-background="new 0 0 59.26 80" xml:space="preserve">
<title>winter-13</title>
<desc>Created with Sketch.</desc>
<g>
	<path d="M38.518,22.104v-8.263c0-1.914-1.557-3.471-3.471-3.471h-3.937V1.481C31.111,0.664,30.448,0,29.629,0
		c-0.818,0-1.481,0.664-1.481,1.481v8.889h-3.937c-1.914,0-3.471,1.557-3.471,3.471v8.263C8.732,25.89,0,37.128,0,50.37
		C0,66.708,13.292,80,29.629,80s29.63-13.292,29.63-29.63C59.26,37.128,50.526,25.889,38.518,22.104z M23.704,20.741v-6.899
		c0-0.28,0.228-0.508,0.508-0.508h10.836c0.279,0,0.508,0.228,0.508,0.508v6.899H23.704z M29.629,77.037
		c-14.704,0-26.667-11.963-26.667-26.667c0-14.704,11.963-26.667,26.667-26.667c14.703,0,26.666,11.963,26.666,26.667
		C56.295,65.074,44.333,77.037,29.629,77.037z"/>
	<path d="M47.407,48.889h-4.638l1.427-2.141c0.453-0.682,0.27-1.602-0.41-2.055c-0.682-0.455-1.602-0.27-2.056,0.41l-2.523,3.785
		H35.36c-0.538-2.078-2.172-3.712-4.25-4.25v-3.846l3.785-2.523c0.681-0.453,0.864-1.373,0.411-2.055
		c-0.455-0.68-1.374-0.865-2.056-0.41l-2.141,1.427v-4.639c0-0.818-0.663-1.481-1.481-1.481c-0.818,0-1.481,0.664-1.481,1.481v4.639
		l-2.141-1.427c-0.682-0.455-1.602-0.27-2.055,0.41c-0.453,0.682-0.27,1.602,0.411,2.055l3.785,2.523v3.846
		c-2.078,0.538-3.712,2.172-4.25,4.25h-3.847l-2.523-3.785c-0.455-0.68-1.375-0.865-2.055-0.41c-0.68,0.453-0.863,1.373-0.41,2.055
		l1.427,2.141h-4.639c-0.818,0-1.481,0.664-1.481,1.481s0.664,1.481,1.481,1.481h4.639l-1.427,2.141
		c-0.453,0.682-0.27,1.602,0.41,2.055c0.253,0.17,0.54,0.25,0.821,0.25c0.479,0,0.948-0.231,1.234-0.66l2.523-3.785h3.846
		c0.538,2.078,2.172,3.713,4.25,4.25v3.846l-3.785,2.523c-0.68,0.453-0.864,1.373-0.411,2.055c0.286,0.429,0.756,0.66,1.234,0.66
		c0.281,0,0.567-0.08,0.821-0.249l2.141-1.428v4.64c0,0.817,0.664,1.481,1.481,1.481c0.818,0,1.481-0.664,1.481-1.481v-4.64
		l2.141,1.428c0.253,0.169,0.54,0.249,0.821,0.249c0.479,0,0.947-0.231,1.234-0.66c0.453-0.682,0.27-1.602-0.411-2.055l-3.785-2.523
		v-3.846c2.077-0.537,3.712-2.172,4.25-4.25h3.846l2.523,3.785c0.286,0.429,0.756,0.66,1.234,0.66c0.281,0,0.567-0.08,0.821-0.25
		c0.68-0.453,0.863-1.373,0.41-2.055l-1.427-2.141h4.638c0.818,0,1.482-0.664,1.482-1.481S48.225,48.889,47.407,48.889z
		 M29.629,53.334c-1.634,0-2.963-1.33-2.963-2.964s1.329-2.963,2.963-2.963c1.635,0,2.963,1.329,2.963,2.963
		S31.264,53.334,29.629,53.334z"/>
</g>
</svg>
