<?xml version="1.0" encoding="utf-8"?>
<!-- Generator: Adobe Illustrator 15.0.2, SVG Export Plug-In . SVG Version: 6.00 Build 0)  -->
<!DOCTYPE svg PUBLIC "-//W3C//DTD SVG 1.1//EN" "http://www.w3.org/Graphics/SVG/1.1/DTD/svg11.dtd">
<svg version="1.1" id="Layer_1" xmlns="http://www.w3.org/2000/svg" xmlns:xlink="http://www.w3.org/1999/xlink" x="0px" y="0px"
	 width="90.32px" height="100px" viewBox="0 0 90.32 100" enable-background="new 0 0 90.32 100" xml:space="preserve">
<path d="M77.6,83.439v-6.752H62.645v-3.861h25.387c0.912,0,1.65-0.747,1.65-1.667V1.669c0-0.922-0.738-1.669-1.65-1.669H1.97
	C1.059,0,0.32,0.747,0.32,1.669v69.49c0,0.92,0.739,1.667,1.65,1.667h25.693v3.861H12.72v6.752L0,92.602V100h90.32v-7.398
	L77.6,83.439z M6.36,66.249V6.041c0-0.795,0.636-1.44,1.417-1.44h74.127c0.781,0,1.416,0.646,1.416,1.44v60.208
	c0,0.796-0.635,1.438-1.416,1.438H7.777C6.996,67.688,6.36,67.045,6.36,66.249z M4.444,92.277l11.458-8.203H74.42l11.443,8.203
	H4.444z"/>
</svg>
