<?xml version="1.0" encoding="utf-8"?>
<!-- Generator: Adobe Illustrator 15.0.2, SVG Export Plug-In . SVG Version: 6.00 Build 0)  -->
<!DOCTYPE svg PUBLIC "-//W3C//DTD SVG 1.1//EN" "http://www.w3.org/Graphics/SVG/1.1/DTD/svg11.dtd">
<svg version="1.1" id="Layer_1" xmlns="http://www.w3.org/2000/svg" xmlns:xlink="http://www.w3.org/1999/xlink" x="0px" y="0px"
	 width="80.001px" height="77.828px" viewBox="0 0 80.001 77.828" enable-background="new 0 0 80.001 77.828" xml:space="preserve">
<g>
	<path d="M66.893,10.724l-20.244,9.578c-0.441,0.207-0.91,0.313-1.395,0.313c-1.254,0-2.41-0.731-2.949-1.867
		c-0.371-0.787-0.414-1.67-0.121-2.492c0.295-0.82,0.889-1.477,1.676-1.848l12.669-5.995C51.359,7.657,45.627,7.27,39.916,7.27
		c-5.695,0-11.412,0.382-16.565,1.135l16.481,7.838c0.787,0.373,1.381,1.032,1.672,1.852c0.291,0.822,0.244,1.705-0.129,2.492
		c-0.535,1.128-1.69,1.86-2.943,1.86c-0.483,0-0.95-0.105-1.394-0.313L13,10.704C7.357,12.54,3.702,15.1,3.702,18.355
		c0,0.279,0.036,0.552,0.088,0.821v47.061c0,2.143,1.363,3.969,3.685,5.498c0.133,0.109,0.278,0.211,0.44,0.291
		c0.013,0.006,0.027,0.01,0.038,0.016c6.487,3.943,19.557,5.787,31.958,5.787c17.396,0,36.121-3.627,36.121-11.59V19.198
		c0.056-0.276,0.094-0.556,0.094-0.843C76.127,15.112,72.5,12.559,66.893,10.724z M8.367,24.09c1.938,1.043,4.401,1.935,7.229,2.677
		v24.671L8.367,65.979V24.09z M11.976,69.002l5.711-11.494l6,14.584C18.437,71.27,14.534,70.121,11.976,69.002z M20.17,51.523V27.78
		c4.928,0.914,10.547,1.456,16.269,1.612v22.131l-8.132,19.77L20.17,51.523z M39.916,73.25c-2.62,0.002-5.08-0.078-7.378-0.219
		l6.172-14.996l6.1,15.109C43.235,73.207,41.621,73.25,39.916,73.25z M41.016,51.529V29.433c5.787-0.05,11.557-0.491,16.699-1.315
		v23.406l-8.431,20.492L41.016,51.529z M54.076,72.385l6.123-14.875l6.033,12.135C63.35,70.691,59.303,71.699,54.076,72.385z
		 M70.35,67.654l-8.059-16.215V27.241c3.648-0.824,6.801-1.876,9.172-3.153v42.148C71.463,66.627,71.088,67.115,70.35,67.654z"/>
	<path d="M38.432,20.923c0.646,0,1.269-0.365,1.567-0.99c0.41-0.867,0.043-1.9-0.824-2.312L2.48,0.168
		c-0.865-0.41-1.9-0.046-2.312,0.822c-0.412,0.865-0.043,1.9,0.82,2.312l36.698,17.454C37.929,20.869,38.182,20.923,38.432,20.923z"
		/>
	<path d="M79.832,0.995c-0.408-0.867-1.441-1.233-2.311-0.827L44.51,15.787c-0.866,0.41-1.234,1.445-0.824,2.31
		c0.296,0.627,0.918,0.994,1.566,0.994c0.25,0,0.502-0.053,0.741-0.167L79.006,3.305C79.873,2.895,80.244,1.86,79.832,0.995z"/>
</g>
</svg>
