<?xml version="1.0" encoding="utf-8"?>
<!-- Generator: Adobe Illustrator 15.0.2, SVG Export Plug-In . SVG Version: 6.00 Build 0)  -->
<!DOCTYPE svg PUBLIC "-//W3C//DTD SVG 1.1//EN" "http://www.w3.org/Graphics/SVG/1.1/DTD/svg11.dtd">
<svg version="1.1" id="Layer_1" xmlns="http://www.w3.org/2000/svg" xmlns:xlink="http://www.w3.org/1999/xlink" x="0px" y="0px"
	 width="61.359px" height="43.839px" viewBox="0 0 61.359 43.839" enable-background="new 0 0 61.359 43.839" xml:space="preserve">
<g>
	<circle cx="21.84" cy="4.32" r="4.32"/>
	<path d="M24.96,9.92H18.64c-1.04,0-1.92,0.72-2.24,1.68l-2.561,9.36l3.2,2.72l1.681,20.159h6.159L26.56,23.68l3.199-2.72L27.2,11.6
		C26.96,10.56,26,9.92,24.96,9.92z"/>
	<circle cx="56.561" cy="19.28" r="2.64"/>
	<path d="M59.84,23.759c-0.159-0.639-0.721-1.039-1.358-1.039h-3.84c-0.642,0-1.201,0.4-1.361,1.039l-1.6,5.681l1.92,1.681
		l1.041,12.319h3.76l1.039-12.319l1.92-1.681L59.84,23.759z"/>
	<circle cx="40.72" cy="4.32" r="4.32"/>
	<path d="M48.72,20.96l-2.32-8.4C46,11.04,44.56,10,42.96,10H38.56c-1.601,0-2.961,1.04-3.44,2.56l-2.319,8.4l3.119,2.64l-4.16,7.2
		h4.802L37.6,43.839h6.159l1.2-13.039h4.799l-4.238-7.2L48.72,20.96z"/>
	<circle cx="6.32" cy="15.76" r="3.04"/>
	<path d="M11.84,27.36l-1.6-5.92c-0.32-1.04-1.28-1.84-2.4-1.84H4.72c-1.12,0-2.08,0.72-2.4,1.84l-1.6,5.92l2.159,1.92L0,34.32h3.36
		l0.72,9.12H8.4l0.72-9.12h3.36L9.6,29.28L11.84,27.36z"/>
</g>
</svg>
