<?xml version="1.0" encoding="utf-8"?>
<!-- Generator: Adobe Illustrator 15.0.2, SVG Export Plug-In . SVG Version: 6.00 Build 0)  -->
<!DOCTYPE svg PUBLIC "-//W3C//DTD SVG 1.1//EN" "http://www.w3.org/Graphics/SVG/1.1/DTD/svg11.dtd">
<svg version="1.1" id="Layer_1" xmlns="http://www.w3.org/2000/svg" xmlns:xlink="http://www.w3.org/1999/xlink" x="0px" y="0px"
	 width="57.32px" height="48.286px" viewBox="0 0 57.32 48.286" enable-background="new 0 0 57.32 48.286" xml:space="preserve">
<path d="M34.883,14.511l0.414-1.546l-4.16-1.115l-0.415,1.546L34.883,14.511z M40.768,8.633l-1.116-4.166l-1.546,0.414l1.116,4.166
	L40.768,8.633z M52.441,19.217l0.414-1.546l-4.166-1.116l-0.414,1.545L52.441,19.217z M47.258,11.195l3.045-3.046l-1.131-1.131
	l-3.045,3.046L47.258,11.195z M42.81,22.436l1.116,4.164l1.545-0.415l-1.115-4.164L42.81,22.436z M8.524,15.281l-1.819-1.819
	l-1.131,1.131l1.819,1.819L8.524,15.281z M3.867,24.05l2.485-0.667l-0.415-1.545l-2.485,0.667L3.867,24.05z M21.951,17.547
	l-2.485,0.667l0.415,1.546l2.484-0.667L21.951,17.547z M16.16,11.756l-1.545-0.415l-0.665,2.486l1.546,0.415L16.16,11.756z
	 M9.659,29.841l1.545,0.415l0.666-2.486l-1.545-0.414L9.659,29.841z M34.879,21.063c-6.185,5.836-6.118,15.036-6.053,23.935
	c0.009,1.101,0.017,2.195,0.013,3.281l1.6,0.007c0.004-1.092-0.004-2.193-0.013-3.301c-0.062-8.554-0.127-17.399,5.552-22.758
	L34.879,21.063z M17.609,26.82c6.732,6.717,7.29,13.983,7.29,21.462h1.6c0-7.826-0.594-15.445-7.761-22.595L17.609,26.82z
	 M16.637,18.199l6.135-6.135l-1.131-1.131l-6.135,6.134L16.637,18.199z M15.805,20.797c0-1.597-1.299-2.896-2.896-2.896
	s-2.896,1.299-2.896,2.896s1.299,2.896,2.896,2.896S15.805,22.394,15.805,20.797z M12.909,22.093c-0.715,0-1.296-0.582-1.296-1.296
	s0.582-1.296,1.296-1.296s1.296,0.582,1.296,1.296S13.623,22.093,12.909,22.093z M17.022,22.727l8.38,2.246l0.415-1.545
	l-8.381-2.246L17.022,22.727z M13.294,25.325l2.246,8.381l1.545-0.414L14.84,24.91L13.294,25.325z M9.18,23.395L3.044,29.53
	l1.131,1.131l6.135-6.135L9.18,23.395z M8.795,18.868l-8.381-2.246L0,18.167l8.381,2.247L8.795,18.868z M12.523,16.27l-2.246-8.38
	L8.732,8.304l2.246,8.381L12.523,16.27z M46.247,15.169l11.074-2.969l-0.414-1.545l-11.074,2.969L46.247,15.169z M44.865,15.534
	c0-1.696-1.38-3.076-3.076-3.076s-3.076,1.38-3.076,3.076c0,1.696,1.38,3.076,3.076,3.076S44.865,17.23,44.865,15.534z
	 M41.789,17.009c-0.814,0-1.476-0.662-1.476-1.476c0-0.814,0.661-1.476,1.476-1.476s1.476,0.662,1.476,1.476
	C43.264,16.348,42.603,17.009,41.789,17.009z M44.334,19.21l8.109,8.108l1.131-1.131l-8.108-8.109L44.334,19.21z M46.668,0.414
	L45.124,0l-2.969,11.077l1.545,0.415L46.668,0.414z M37.331,15.901l-11.075,2.967l0.415,1.546l11.075-2.967L37.331,15.901z
	 M36.91,30.653l1.546,0.414l2.967-11.073l-1.546-0.415L36.91,30.653z M39.243,11.857L31.135,3.75l-1.131,1.131l8.107,8.108
	L39.243,11.857z"/>
</svg>
