<?xml version="1.0" encoding="utf-8"?>
<!-- Generator: Adobe Illustrator 15.0.2, SVG Export Plug-In . SVG Version: 6.00 Build 0)  -->
<!DOCTYPE svg PUBLIC "-//W3C//DTD SVG 1.1//EN" "http://www.w3.org/Graphics/SVG/1.1/DTD/svg11.dtd">
<svg version="1.1" id="Layer_1" xmlns="http://www.w3.org/2000/svg" xmlns:xlink="http://www.w3.org/1999/xlink" x="0px" y="0px"
	 width="51.137px" height="72.502px" viewBox="0 0 51.137 72.502" enable-background="new 0 0 51.137 72.502" xml:space="preserve">
<path d="M41.617,21.946c4.73-3.906,7.04-8.777,5.19-11.385c-1.858-2.622-7.259-2.038-12.534,1.17
	c0.636-6.051-1.101-11.098-4.227-11.676c-3.174-0.587-6.662,3.641-8.196,9.666c-0.18-0.296-0.37-0.59-0.576-0.881
	c-2.909-4.104-7.282-6.002-9.767-4.241c-2.484,1.762-2.14,6.517,0.769,10.62c0.306,0.432,0.631,0.833,0.965,1.214
	C6.496,15.383,0.626,17.227,0.046,20.63c-0.535,3.141,3.625,6.519,9.546,8c-4.79,3.918-7.138,8.834-5.278,11.458
	c1.868,2.635,7.318,2.033,12.619-1.22c-0.376,5.635,1.341,10.208,4.307,10.755c2.957,0.547,6.186-3.085,7.854-8.454
	c1.806,6.602,3.147,15.969,3.547,29.207c0,0,2.793,4.781,3.909,0c0,0,0.174-12.029-2.147-24.3c2.11,1.238,4.258,1.496,5.737,0.447
	c2.486-1.761,2.142-6.517-0.769-10.621c-0.462-0.653-0.965-1.243-1.488-1.778c6.75,1.052,12.627-0.792,13.207-4.197
	C51.623,26.799,47.5,23.437,41.617,21.946z M33.588,26.729c-0.736,4.32-4.834,7.226-9.155,6.49c-4.319-0.736-7.226-4.833-6.49-9.155
	c0.736-4.321,4.834-7.226,9.154-6.49C31.417,18.31,34.323,22.409,33.588,26.729z"/>
</svg>
