<?xml version="1.0" encoding="utf-8"?>
<!-- Generator: Adobe Illustrator 15.0.2, SVG Export Plug-In . SVG Version: 6.00 Build 0)  -->
<!DOCTYPE svg PUBLIC "-//W3C//DTD SVG 1.1//EN" "http://www.w3.org/Graphics/SVG/1.1/DTD/svg11.dtd">
<svg version="1.1" id="Layer_1" xmlns="http://www.w3.org/2000/svg" xmlns:xlink="http://www.w3.org/1999/xlink" x="0px" y="0px"
	 width="59.176px" height="52.94px" viewBox="0 0 59.176 52.94" enable-background="new 0 0 59.176 52.94" xml:space="preserve">
<g>
	<path d="M53.086,16.1c-3.894-4.021-9.283-6.328-14.788-6.328c-1.681,0-3.352,0.214-4.978,0.638c-0.48-1.173-1.143-2.21-1.697-3.08
		c-0.188-0.294-0.367-0.574-0.53-0.848c-0.314-0.513-0.46-0.874-0.52-1.082c0.035-0.011,0.067-0.016,0.1-0.016
		c0.064,0,0.142,0.019,0.229,0.057c0.201,0.087,0.613,0.347,1.094,1.091c0.278,0.457,0.784,0.729,1.353,0.729c0,0,0,0,0,0
		c0.754,0,1.417-0.475,1.619-1.179c0.12-0.466,0.213-0.621,0.244-0.663c0.375-0.194,0.662-0.54,0.796-0.963
		c0.143-0.451,0.091-0.929-0.127-1.284C34.749,1.186,32.668,0,30.313,0l-0.245,0.004c-0.706,0.026-1.437,0.184-2.103,0.45
		c-1.69,0.655-2.896,1.966-3.312,3.612c-0.424,1.783,0.102,3.821,1.503,5.87c0.067,0.105,0.079,0.138,0.079,0.139
		c0,0,0.006,0.034-0.009,0.18c-0.004,0.066-0.019,0.149-0.043,0.249c-1.747-0.486-3.52-0.731-5.285-0.731
		c-5.518,0-10.916,2.307-14.813,6.332C2.218,20.146,0,25.701,0,31.345c0,5.659,2.218,11.223,6.089,15.268
		c3.894,4.021,9.292,6.328,14.809,6.328c2.927,0,5.928-0.693,8.711-2.008c2.782,1.314,5.776,2.008,8.688,2.008
		c5.503,0,10.894-2.307,14.792-6.332c3.867-4.043,6.086-9.606,6.086-15.264C59.176,25.703,56.958,20.147,53.086,16.1z
		 M29.504,10.501c0.009-0.124,0.011-0.247,0.008-0.37c0.266,0.447,0.514,0.897,0.714,1.345c-0.217,0.095-0.436,0.195-0.657,0.3
		c-0.104-0.05-0.21-0.099-0.317-0.146C29.378,11.226,29.458,10.864,29.504,10.501z M50.725,44.319
		c-3.151,3.261-7.438,5.19-11.831,5.347c2.627-0.916,4.718-2.479,6.209-4.632c0.361-0.473,0.413-1.118,0.133-1.684
		c-0.28-0.567-0.825-0.92-1.421-0.92l-0.153,0.007c-0.522,0.028-0.996,0.316-1.205,0.693c-1.354,1.924-3.161,3.118-5.684,3.756
		c-0.591,0.147-1.222,0.264-1.913,0.35c0.931-1.234,1.467-2.471,1.745-3.253c0.179-0.486,0.1-1.042-0.212-1.488
		c-0.316-0.454-0.819-0.725-1.344-0.725c-0.099,0-0.199,0.01-0.308,0.031c-0.582,0.122-1.052,0.56-1.213,1.1
		c-0.573,1.637-1.89,3.631-3.903,4.494c-2.046-0.844-3.379-2.847-3.943-4.456c-0.21-0.686-0.863-1.165-1.588-1.165l-0.182,0.006
		l-0.092,0.018c-0.468,0.089-0.892,0.406-1.134,0.848c-0.238,0.435-0.275,0.932-0.117,1.324c0.278,0.79,0.814,2.029,1.746,3.264
		c-0.68-0.086-1.301-0.201-1.886-0.348c-2.529-0.64-4.337-1.823-5.686-3.725c-0.28-0.457-0.782-0.738-1.324-0.738
		c-0.084,0-0.168,0.007-0.251,0.021c-0.539,0.073-1.013,0.438-1.248,0.962c-0.243,0.543-0.188,1.161,0.128,1.593
		c1.534,2.186,3.625,3.75,6.23,4.663c-4.352-0.172-8.733-2.143-11.829-5.345c-3.249-3.362-5.189-8.212-5.189-12.975
		c0-4.748,1.94-9.59,5.188-12.952c3.065-3.17,7.415-5.128,11.753-5.319c-2.569,0.917-4.632,2.468-6.134,4.61
		c-0.265,0.353-0.375,0.815-0.303,1.267c0.071,0.446,0.308,0.829,0.638,1.059c0.269,0.201,0.594,0.307,0.941,0.307
		c0.594,0,1.141-0.313,1.375-0.736c1.351-1.92,3.165-3.114,5.706-3.756c0.618-0.155,1.256-0.266,1.882-0.347
		c-0.924,1.23-1.459,2.468-1.738,3.259c-0.296,0.831,0.166,1.788,1.01,2.09c0.171,0.062,0.351,0.092,0.535,0.092
		c0.699,0,1.323-0.434,1.558-1.09c0.571-1.652,1.89-3.654,3.917-4.492c2.028,0.835,3.346,2.807,3.922,4.447
		c0.182,0.689,0.857,1.199,1.608,1.199c0.173,0,0.342-0.027,0.502-0.081c0.434-0.145,0.788-0.482,0.972-0.925
		c0.175-0.421,0.174-0.884,0-1.281c-0.285-0.795-0.819-2.012-1.728-3.221c0.633,0.081,1.279,0.193,1.905,0.349
		c2.526,0.64,4.332,1.833,5.651,3.707c0.285,0.462,0.81,0.749,1.368,0.749c0.349,0,0.69-0.113,0.886-0.266
		c0.373-0.229,0.635-0.614,0.72-1.056c0.086-0.449-0.017-0.913-0.265-1.246c-1.503-2.165-3.572-3.723-6.164-4.643
		c4.387,0.178,8.64,2.094,11.759,5.32c3.249,3.362,5.189,8.204,5.189,12.953C55.914,36.106,53.974,40.958,50.725,44.319z"/>
</g>
</svg>
