<?xml version="1.0" encoding="utf-8"?>
<!-- Generator: Adobe Illustrator 15.0.2, SVG Export Plug-In . SVG Version: 6.00 Build 0)  -->
<!DOCTYPE svg PUBLIC "-//W3C//DTD SVG 1.1//EN" "http://www.w3.org/Graphics/SVG/1.1/DTD/svg11.dtd">
<svg version="1.1" id="Layer_1" xmlns="http://www.w3.org/2000/svg" xmlns:xlink="http://www.w3.org/1999/xlink" x="0px" y="0px"
	 width="77.886px" height="50.77px" viewBox="0 0 77.886 50.77" enable-background="new 0 0 77.886 50.77" xml:space="preserve">
<g>
	<path d="M36.234,37.889c-2.772,5.637-3.95,10.119-4.208,11.186c-0.179,0.737,0.273,1.48,1.009,1.656
		c0.109,0.027,0.218,0.039,0.324,0.039c0.618,0,1.18-0.42,1.333-1.048c0.376-1.553,2.805-10.739,9.587-19.804
		c0.134-0.012,0.268-0.038,0.398-0.091c5.826-2.391,12.5-0.879,12.566-0.863c0.737,0.167,1.478-0.286,1.648-1.023
		c0.172-0.738-0.283-1.475-1.021-1.648c-0.246-0.058-5.119-1.17-10.517-0.106c3.739-4.136,8.485-8.017,14.483-10.854
		c0.686-0.323,0.979-1.142,0.654-1.827c-0.324-0.686-1.146-0.979-1.826-0.654c-3.801,1.797-7.116,3.993-10.021,6.4l1.016-3.541
		c0.207-0.729-0.213-1.488-0.941-1.697c-0.725-0.208-1.486,0.212-1.696,0.941l-2.042,7.124c-0.055,0.188-0.064,0.378-0.039,0.56
		c-3.941,3.991-6.923,8.307-9.146,12.284c-1.924-4.259-2.227-8.927-0.825-13.32c1.558-4.878,5.082-9.02,9.428-11.078
		c8.062-3.817,16.619-4.104,26.805-3.148c-1.041,1.682-2.152,3.535-2.795,4.707c-2.489,4.537-3.607,9.514-4.462,13.822
		c-0.971,4.9-3.688,9.125-7.455,11.591c-4.076,2.668-9.181,3.354-15.167,2.04c-0.74-0.158-1.473,0.305-1.634,1.045
		c-0.163,0.74,0.306,1.473,1.046,1.635c2.119,0.465,4.174,0.696,6.136,0.696c4.181,0,7.957-1.05,11.12-3.12
		c4.446-2.91,7.516-7.652,8.646-13.354c0.813-4.108,1.875-8.841,4.178-13.038c0.867-1.589,2.647-4.499,3.878-6.43l1.19-1.866
		l-2.199-0.236C66.321,3.861,55.47,3.191,45.225,8.043c-5.021,2.378-9.082,7.134-10.867,12.723
		c-1.809,5.663-1.162,11.714,1.82,17.042C36.194,37.836,36.216,37.86,36.234,37.889z"/>
	<path d="M6.591,15.642C7.786,21.669,13.711,27.42,21.62,27.42c0.829,0,1.682-0.062,2.551-0.196c0.75-0.115,1.264-0.815,1.15-1.563
		c-0.114-0.75-0.817-1.256-1.563-1.15c-7.32,1.116-13.396-3.958-14.476-9.403c-0.586-2.954-1.355-6.369-3.071-9.5
		C5.85,4.949,5.27,3.97,4.678,3.003c6.523-0.563,12.05-0.303,17.243,2.158c2.839,1.344,5.143,4.054,6.163,7.247
		c0.589,1.848,0.969,4.521-0.067,7.545c-2.774-4.351-6.239-8.076-10.375-11.121c-0.611-0.45-1.47-0.319-1.918,0.292
		c-0.45,0.61-0.319,1.469,0.291,1.918c6.274,4.621,10.916,10.917,13.798,18.717c0.204,0.554,0.73,0.897,1.287,0.897
		c0.158,0,0.318-0.027,0.476-0.086c0.711-0.263,1.074-1.052,0.812-1.763c-0.769-2.079-1.655-4.058-2.658-5.935
		c1.805-3.571,2.164-7.553,0.967-11.298c-1.247-3.905-4.088-7.23-7.601-8.894C16.045-0.657,8.611-0.2,2.199,0.49L0,0.727
		l1.188,1.865C2.022,3.9,3.222,5.865,3.807,6.93C5.333,9.718,6.045,12.889,6.591,15.642z"/>
</g>
</svg>
