<?xml version="1.0" encoding="utf-8"?>
<!-- Generator: Adobe Illustrator 15.0.2, SVG Export Plug-In . SVG Version: 6.00 Build 0)  -->
<!DOCTYPE svg PUBLIC "-//W3C//DTD SVG 1.1//EN" "http://www.w3.org/Graphics/SVG/1.1/DTD/svg11.dtd">
<svg version="1.1" id="Layer_1" xmlns="http://www.w3.org/2000/svg" xmlns:xlink="http://www.w3.org/1999/xlink" x="0px" y="0px"
	 width="180px" height="77px" viewBox="0 0 180 77" enable-background="new 0 0 180 77" xml:space="preserve">
<text transform="matrix(0.9982 0 0 1 4.882812e-04 41.8184)" fill="#010101" font-family="'RobotoCondensed-LightItalic'" font-size="45.3321">backtrack</text>
<path fill="none" stroke="#010101" stroke-miterlimit="10" d="M162.515,0C173.492,7.19,180,16.139,180,25.837
	c0,23.725-38.959,42.961-87.014,42.961c-7.917,0-15.586-0.524-22.876-1.502"/>
<g>
	<polygon fill="#010101" points="56.463,73.653 60.971,77 62.699,71.565 64.423,66.132 66.148,60.69 67.874,55.257 62.266,55.381 	
		"/>
	<path fill="#010101" d="M32.753,56.043l21.283,15.808l5.205-16.4L32.753,56.043z M51.363,61.969
		c-0.486,1.534-2.124,2.382-3.656,1.896c-1.532-0.488-2.377-2.129-1.892-3.66c0.488-1.537,2.124-2.383,3.658-1.897
		C51.003,58.798,51.849,60.434,51.363,61.969z"/>
</g>
</svg>
