<?xml version="1.0" encoding="utf-8"?>
<!-- Generator: Adobe Illustrator 15.0.2, SVG Export Plug-In . SVG Version: 6.00 Build 0)  -->
<!DOCTYPE svg PUBLIC "-//W3C//DTD SVG 1.1//EN" "http://www.w3.org/Graphics/SVG/1.1/DTD/svg11.dtd">
<svg version="1.1" id="Layer_1" xmlns="http://www.w3.org/2000/svg" xmlns:xlink="http://www.w3.org/1999/xlink" x="0px" y="0px"
	 width="64.186px" height="81.765px" viewBox="0 0 64.186 81.765" enable-background="new 0 0 64.186 81.765" xml:space="preserve">
<path d="M35.695,0.811C26.282-1.205,16.65,0.567,8.57,5.797l2.717,4.197C18.247,5.49,26.543,3.968,34.648,5.7
	c16.731,3.583,27.428,20.111,23.846,36.843C54.91,59.274,38.383,69.971,21.651,66.39c-0.042-0.009-0.082-0.022-0.124-0.031
	l9.748-4.249L0,54.268l16.836,27.497l1.2-11.138c0.848,0.248,1.706,0.467,2.569,0.651c2.533,0.543,5.061,0.803,7.552,0.803
	c16.623,0,31.606-11.597,35.226-28.491C67.543,24.162,55.123,4.972,35.695,0.811z"/>
</svg>
