<?xml version="1.0" encoding="utf-8"?>
<!-- Generator: Adobe Illustrator 15.0.2, SVG Export Plug-In . SVG Version: 6.00 Build 0)  -->
<!DOCTYPE svg PUBLIC "-//W3C//DTD SVG 1.1//EN" "http://www.w3.org/Graphics/SVG/1.1/DTD/svg11.dtd">
<svg version="1.1" id="Layer_1" xmlns="http://www.w3.org/2000/svg" xmlns:xlink="http://www.w3.org/1999/xlink" x="0px" y="0px"
	 width="187px" height="95.334px" viewBox="0 0 187 95.334" enable-background="new 0 0 187 95.334" xml:space="preserve">
<g transform="translate(-390 -1400)">
	<path d="M448.366,1493.634c-6.837,0-12.4-4.486-12.4-10s5.563-10,12.4-10c1.365,0,2.749,0.213,4.232,0.652l2.567,0.76v-59.395
		l63.2-13.542v67.126c0,5.514-5.562,10-12.4,10c-6.837,0-12.399-4.486-12.399-10s5.562-10,12.399-10
		c1.362,0,2.747,0.214,4.233,0.652l2.566,0.757v-47.029l-51.999,11.144v58.875C460.767,1489.147,455.204,1493.634,448.366,1493.634z
		"/>
</g>
<polygon points="34.045,80.651 1.265,47.872 34.044,15.091 38.287,19.333 9.75,47.872 38.287,76.409 "/>
<polygon points="152.3,80.65 148.058,76.408 176.595,47.871 148.058,19.333 152.3,15.091 185.079,47.871 "/>
</svg>
