<?xml version="1.0" encoding="utf-8"?>
<!-- Generator: Adobe Illustrator 15.0.2, SVG Export Plug-In . SVG Version: 6.00 Build 0)  -->
<!DOCTYPE svg PUBLIC "-//W3C//DTD SVG 1.1//EN" "http://www.w3.org/Graphics/SVG/1.1/DTD/svg11.dtd">
<svg version="1.1" id="Layer_1" xmlns="http://www.w3.org/2000/svg" xmlns:xlink="http://www.w3.org/1999/xlink" x="0px" y="0px"
	 width="64.077px" height="78.982px" viewBox="0 0 64.077 78.982" enable-background="new 0 0 64.077 78.982" xml:space="preserve">
<path d="M64.077,42.229c-2.423-4.387-4.618-9.003-9.536-10.898c-0.082-6.881,2.107-15.231,0.682-21.794
	c-0.248-1.146-1.047-2.334-1.361-3.406C53.215,3.932,53.508,0.773,51.137,0c-7.199,5.601-1.767,20.725-1.066,28.736
	c0.024,0.062,0.038,0.133,0.045,0.211c0,0.113,0,0.227,0,0.341c-0.011-0.179-0.027-0.365-0.045-0.551
	c-0.039-0.103-0.115-0.168-0.295-0.129c-3.654-6.519-4.272-16.261-7.834-22.817c-1.147-2.114-2.434-5.008-5.448-5.109
	C35.057,1.548,35.018,3.73,34.79,5.45c-1.702,12.979,5.103,21.752,10.897,27.925c-1.037,1.46-1.963,3.031-1.703,5.789
	c-3.797,1.598-7.219-0.017-10.217-0.682C15.159,34.355-4.17,46.697,3.46,66.066c-0.819,1.225-2.94,1.147-3.406,2.725
	c1.19,0.793-0.356,1.217,0,2.043c0.674,1.561,2.238,1.742,3.406,2.725c2.507,0.643,5.114,0.087,6.811-1.021
	c-0.033,1.395,0.047,2.678,1.362,2.724c5.383,0.223,11.884,0.771,16.346,0.341c0.978-0.094,2.04-0.912,3.065-1.021
	c2.506-0.266,5.988,1.619,7.493-1.021c0.064-4.493-9.639-2.166-12.601-4.768c1.938-3.17,10.034-2.83,14.08-3.892
	c0,0-0.028,0.679,0.197,1.801c-0.017-0.009-0.025-0.016-0.025-0.016c0.02,0.057,0.038,0.109,0.057,0.166
	c0.013,0.058,0.022,0.111,0.036,0.171l0.031,0.025C44.1,78.12,46.038,79.34,47.311,78.911c1.271-0.43,2.072-2.579-1.605-13.684
	l0.245-0.558l0.224,0.709c1.941,2.176,1.641,6.588,3.97,8.377c0.776,1.043,2.132,1.293,2.132,1.293
	c1.91,0.474,6.777,0.471,9.078,0.553c0.59-3.795-3.131-3.428-5.789-3.064c-3.151-2.264-4.666-6.479-3.746-11.238
	c0.865-4.476,6.254-9.137,5.108-13.962C60.664,46.988,63.305,45.543,64.077,42.229z M55.189,40.361c-0.762,0-1.379-0.617-1.379-1.38
	s0.616-1.379,1.379-1.379c0.762,0,1.379,0.616,1.379,1.379S55.951,40.361,55.189,40.361z"/>
</svg>
