<?xml version="1.0" encoding="utf-8"?>
<!-- Generator: Adobe Illustrator 15.0.2, SVG Export Plug-In . SVG Version: 6.00 Build 0)  -->
<!DOCTYPE svg PUBLIC "-//W3C//DTD SVG 1.1//EN" "http://www.w3.org/Graphics/SVG/1.1/DTD/svg11.dtd">
<svg version="1.1" id="Layer_1" xmlns="http://www.w3.org/2000/svg" xmlns:xlink="http://www.w3.org/1999/xlink" x="0px" y="0px"
	 width="130px" height="89px" viewBox="-34.248 0 130 89" enable-background="new -34.248 0 130 89" xml:space="preserve">
<g>
	<path d="M42.307,11.001H32.282c2.734,4.02,4.334,8.873,4.334,14.101c0,3.985-0.933,7.751-2.586,11.098h8.277V11.001z"/>
	<rect x="13.486" y="51.799" width="28.82" height="4.801"/>
	<path d="M42.307,41.8H30.25c-1.67,1.872-3.614,3.495-5.772,4.799h17.829V41.8z"/>
	<path d="M4.002,1.145C6.374,0.401,8.897,0,11.514,0H4.002V1.145z"/>
	<path d="M85.172,0H11.514c5.873,0,11.269,2.022,15.545,5.4h53.006v66.998H9.109V50.085c-1.762-0.167-3.471-0.515-5.107-1.027
		v28.943h81.17V0z"/>
	<rect x="13.486" y="62.001" width="28.82" height="4.798"/>
	<polygon points="47.047,46.599 75.141,46.599 75.141,41.8 47.049,41.8 47.047,41.8 	"/>
	<polygon points="47.047,56.6 75.141,56.6 75.141,51.799 47.049,51.799 47.047,51.799 	"/>
	<polygon points="47.047,26 75.141,26 75.141,21.199 47.049,21.199 47.047,21.199 	"/>
	<polygon points="89.001,11 89.001,16.599 90.645,16.599 90.645,83.402 18.594,83.402 18.594,81.6 13.486,81.6 13.486,89 95.752,89 
		95.752,11 	"/>
	<polygon points="47.047,66.799 75.141,66.799 75.141,62.001 47.049,62.001 47.047,62.001 	"/>
	<polygon points="47.047,36.399 75.141,36.399 75.141,31.6 47.049,31.6 47.047,31.6 	"/>
	<polygon points="75.141,11.001 47.049,11.001 47.047,11.001 47.047,15.8 75.141,15.8 	"/>
</g>
<path d="M11.514,4.25c-11.516,0-20.852,9.335-20.852,20.852c0,4.312,1.31,8.317,3.552,11.642l-27.291,27.291
	c-1.562,1.562-1.562,4.095,0,5.656c0.781,0.781,1.805,1.172,2.829,1.172s2.047-0.391,2.829-1.172l27.291-27.29
	c3.325,2.242,7.331,3.551,11.643,3.551c11.516,0,20.852-9.335,20.852-20.851C32.366,13.585,23.03,4.25,11.514,4.25z M11.514,39.726
	c-8.077,0-14.625-6.548-14.625-14.625c0-8.077,6.548-14.625,14.625-14.625s14.625,6.548,14.625,14.625
	C26.139,33.178,19.591,39.726,11.514,39.726z"/>
</svg>
