<?xml version="1.0" encoding="utf-8"?>
<!-- Generator: Adobe Illustrator 15.0.2, SVG Export Plug-In . SVG Version: 6.00 Build 0)  -->
<!DOCTYPE svg PUBLIC "-//W3C//DTD SVG 1.1//EN" "http://www.w3.org/Graphics/SVG/1.1/DTD/svg11.dtd">
<svg version="1.1" id="Layer_1" xmlns="http://www.w3.org/2000/svg" xmlns:xlink="http://www.w3.org/1999/xlink" x="0px" y="0px"
	 width="66.616px" height="66.613px" viewBox="0 0 66.616 66.613" enable-background="new 0 0 66.616 66.613" xml:space="preserve">
<path fill="#010101" d="M0,20.851c0,11.516,9.336,20.852,20.852,20.852c4.313,0,8.318-1.311,11.644-3.553l27.291,27.291
	c0.782,0.781,1.805,1.172,2.829,1.172s2.047-0.391,2.829-1.172c1.562-1.562,1.562-4.096,0-5.656l-27.291-27.29
	c2.242-3.326,3.552-7.331,3.552-11.643C41.705,9.335,32.369,0,20.854,0S0.002,9.335,0,20.851z M6.229,20.852
	c0-8.077,6.548-14.625,14.625-14.625c8.076,0,14.624,6.548,14.624,14.625c0,8.076-6.548,14.625-14.624,14.625
	C12.776,35.477,6.229,28.928,6.229,20.852z"/>
</svg>
