<?xml version="1.0" encoding="utf-8"?>
<!-- Generator: Adobe Illustrator 15.0.2, SVG Export Plug-In . SVG Version: 6.00 Build 0)  -->
<!DOCTYPE svg PUBLIC "-//W3C//DTD SVG 1.1//EN" "http://www.w3.org/Graphics/SVG/1.1/DTD/svg11.dtd">
<svg version="1.1" id="Layer_1" xmlns="http://www.w3.org/2000/svg" xmlns:xlink="http://www.w3.org/1999/xlink" x="0px" y="0px"
	 width="130px" height="89px" viewBox="0 0 130 89" enable-background="new 0 0 130 89" xml:space="preserve">
<path d="M70.631,28.48c-0.521,3.867-1.917,7.456-3.99,10.556v9.024H55.91c-3.104,1.375-6.535,2.144-10.148,2.144
	c-0.081,0-0.161-0.005-0.242-0.006v31.6c0,3.979,3.439,7.203,7.68,7.203h69.12c4.24,0,7.68-3.225,7.68-7.203V28.48H70.631z
	 M66.641,83.66H51.28V69.42h15.36V83.66z M66.641,65.86H51.28V51.62h15.36V65.86z M85.84,83.66H70.48V69.42H85.84V83.66z
	 M85.84,65.86H70.48V51.62H85.84V65.86z M85.84,48.06H70.48V33.82H85.84V48.06z M105.039,83.66H89.68V69.42h15.359V83.66z
	 M105.039,65.86H89.68V51.62h15.359V65.86z M105.039,48.06H89.68V33.82h15.359V48.06z M124.24,83.66h-15.359V69.42h15.359V83.66z
	 M124.24,65.86h-15.359V51.62h15.359V65.86z M124.24,48.06h-15.359V33.82h15.359V48.06z"/>
<path d="M122.32,10.68h-12.48V2.67c0-1.475-1.291-2.67-2.879-2.67c-1.592,0-2.881,1.195-2.881,2.67v8.01H71.44V2.67
	c0-1.475-1.29-2.67-2.88-2.67C66.97,0,65.68,1.195,65.68,2.67v7.163c2.24,2.917,3.854,6.338,4.641,10.067
	c0.677-0.488,1.12-1.243,1.12-2.099v-4.62c1.72,0.923,2.88,2.645,2.88,4.62c0,2.23-1.476,4.139-3.571,4.938
	c0.067,0.719,0.104,1.446,0.109,2.181H130v-0.89v-6.147C130,13.904,126.561,10.68,122.32,10.68z M106.961,23.14
	c-3.182,0-5.762-2.392-5.762-5.34c0-1.975,1.162-3.696,2.881-4.619V17.8c0,1.474,1.289,2.67,2.881,2.67
	c1.588,0,2.879-1.196,2.879-2.67v-4.62c1.721,0.923,2.881,2.645,2.881,4.62C112.721,20.749,110.141,23.14,106.961,23.14z"/>
<path d="M45.762,4.25c-11.516,0-20.852,9.335-20.852,20.852c0,4.312,1.31,8.317,3.552,11.643L1.171,64.035
	c-1.562,1.561-1.562,4.094,0,5.656C1.953,70.473,2.976,70.863,4,70.863s2.047-0.391,2.829-1.172l27.291-27.291
	c3.325,2.242,7.33,3.553,11.643,3.553c11.516,0,20.852-9.336,20.852-20.852C66.613,13.585,57.277,4.25,45.762,4.25z M45.762,39.727
	c-8.077,0-14.625-6.549-14.625-14.625c0-8.077,6.548-14.625,14.625-14.625s14.625,6.548,14.625,14.625
	C60.387,33.178,53.839,39.727,45.762,39.727z"/>
</svg>
