<?xml version="1.0" encoding="utf-8"?>
<!-- Generator: Adobe Illustrator 15.0.2, SVG Export Plug-In . SVG Version: 6.00 Build 0)  -->
<!DOCTYPE svg PUBLIC "-//W3C//DTD SVG 1.1//EN" "http://www.w3.org/Graphics/SVG/1.1/DTD/svg11.dtd">
<svg version="1.1"
	 id="Layer_1" xmlns:svg="http://www.w3.org/2000/svg" xmlns:inkscape="http://www.inkscape.org/namespaces/inkscape" xmlns:cc="http://creativecommons.org/ns#" xmlns:dc="http://purl.org/dc/elements/1.1/" xmlns:rdf="http://www.w3.org/1999/02/22-rdf-syntax-ns#" xmlns:sodipodi="http://sodipodi.sourceforge.net/DTD/sodipodi-0.dtd"
	 xmlns="http://www.w3.org/2000/svg" xmlns:xlink="http://www.w3.org/1999/xlink" x="0px" y="0px" width="70.5px" height="70.458px"
	 viewBox="0 0 70.5 70.458" enable-background="new 0 0 70.5 70.458" xml:space="preserve">
<g transform="translate(0,-952.36218)">
	<path d="M35.102,952.372c-0.825,0.091-1.443,0.796-1.425,1.625v9.6c-0.012,0.884,0.694,1.61,1.578,1.623
		c0.884,0.013,1.61-0.694,1.622-1.577c0-0.015,0-0.03,0-0.045v-9.6c0.02-0.883-0.682-1.615-1.565-1.634
		C35.242,952.361,35.171,952.365,35.102,952.372z M11.352,962.222c-0.88,0.086-1.523,0.869-1.437,1.748
		c0.036,0.37,0.199,0.715,0.462,0.977l6.8,6.8c0.555,0.688,1.562,0.796,2.25,0.242c0.688-0.555,0.796-1.562,0.242-2.25
		c-0.072-0.089-0.153-0.17-0.242-0.242l-6.775-6.8C12.313,962.35,11.835,962.175,11.352,962.222z M58.852,962.222
		c-0.361,0.045-0.695,0.213-0.949,0.475l-6.775,6.8c-0.688,0.555-0.796,1.562-0.242,2.25c0.555,0.688,1.562,0.796,2.25,0.242
		c0.09-0.072,0.17-0.153,0.242-0.242l6.801-6.8c0.627-0.622,0.633-1.635,0.012-2.263C59.84,962.331,59.346,962.16,58.852,962.222z
		 M35.277,968.397c-10.585,0-19.2,8.615-19.2,19.2s8.615,19.201,19.2,19.201s19.2-8.616,19.2-19.201S45.862,968.397,35.277,968.397z
		 M35.277,971.597c8.855,0,16,7.145,16,16s-7.145,16-16,16s-16-7.144-16-16S26.421,971.597,35.277,971.597z M1.527,985.997
		c-0.884,0.042-1.566,0.792-1.525,1.675c0.042,0.883,0.791,1.566,1.675,1.525h9.6c0.884,0.012,1.61-0.694,1.623-1.578
		c0.013-0.883-0.694-1.61-1.577-1.623c-0.015,0-0.03,0-0.045,0h-9.6C1.627,985.995,1.577,985.995,1.527,985.997z M59.127,985.997
		c-0.883,0.042-1.566,0.792-1.525,1.675c0.041,0.883,0.791,1.566,1.676,1.525h9.6c0.885,0.012,1.609-0.694,1.623-1.578
		c0.012-0.883-0.693-1.61-1.578-1.623c-0.014,0-0.029,0-0.045,0h-9.6C59.227,985.995,59.178,985.995,59.127,985.997z
		 M18.127,1002.946c-0.362,0.047-0.697,0.213-0.95,0.477l-6.8,6.799c-0.634,0.617-0.648,1.629-0.032,2.264
		c0.616,0.633,1.629,0.646,2.263,0.031c0.015-0.016,0.03-0.029,0.044-0.045l6.775-6.775c0.642-0.607,0.67-1.619,0.063-2.262
		C19.139,1003.063,18.633,1002.884,18.127,1002.946z M52.076,1002.946c-0.879,0.086-1.521,0.869-1.438,1.748
		c0.037,0.383,0.211,0.738,0.488,1.002l6.775,6.775c0.609,0.641,1.621,0.666,2.262,0.057s0.666-1.621,0.057-2.262
		c-0.014-0.016-0.029-0.029-0.043-0.045l-6.801-6.799C53.039,1003.075,52.561,1002.899,52.076,1002.946z M35.102,1009.972
		c-0.825,0.092-1.443,0.797-1.425,1.625v9.6c-0.012,0.885,0.694,1.611,1.578,1.623c0.884,0.014,1.61-0.693,1.622-1.576
		c0-0.016,0-0.031,0-0.047v-9.6c0.02-0.883-0.682-1.615-1.565-1.635C35.242,1009.962,35.171,1009.964,35.102,1009.972z"/>
</g>
</svg>
